<svg width="26" height="26" viewBox="0 0 26 26" fill="none" xmlns="http://www.w3.org/2000/svg">
<circle cx="13" cy="13" r="13" fill="#E25839"/>
<circle cx="13" cy="13" r="11.3455" stroke="#0F0F0F" stroke-width="0.945455"/>
<path d="M10.3021 15.0294C10.1175 15.214 10.1175 15.5133 10.3021 15.6979C10.4867 15.8825 10.786 15.8825 10.9706 15.6979L10.3021 15.0294ZM15.8364 10.6364C15.8364 10.3753 15.6247 10.1636 15.3636 10.1636H11.1091C10.848 10.1636 10.6364 10.3753 10.6364 10.6364C10.6364 10.8974 10.848 11.1091 11.1091 11.1091H14.8909V14.8909C14.8909 15.152 15.1025 15.3636 15.3636 15.3636C15.6247 15.3636 15.8364 15.152 15.8364 14.8909V10.6364ZM10.6364 15.3636L10.9706 15.6979L15.6979 10.9706L15.3636 10.6364L15.0294 10.3021L10.3021 15.0294L10.6364 15.3636Z" fill="#0F0F0F"/>
</svg>
