<svg width="24" height="28" viewBox="0 0 24 28" fill="none" xmlns="http://www.w3.org/2000/svg">
<path d="M18.7586 19.0345C17.3793 20.1379 15.4483 20.9655 13.5172 20.9655C9.10345 20.9655 6.06896 17.6552 6.06896 13.2414C6.06896 8.82758 9.10345 5.7931 13.5172 5.7931C15.4483 5.7931 17.3793 6.34482 18.7586 7.72413L19.5862 8.55172L24 4.41379L22.8966 3.5862C20.4138 1.3793 17.1035 0 13.5172 0C5.79311 0 0 5.7931 0 13.5172C0 21.2414 5.79311 27.0345 13.5172 27.0345C17.1035 27.0345 20.4138 25.6552 22.8966 23.4483L24 22.6207L19.5862 18.2069L18.7586 19.0345Z" fill="#E25839"/>
<path d="M13.2414 17.931C15.6791 17.931 17.6552 15.9549 17.6552 13.5172C17.6552 11.0796 15.6791 9.10344 13.2414 9.10344C10.8038 9.10344 8.82764 11.0796 8.82764 13.5172C8.82764 15.9549 10.8038 17.931 13.2414 17.931Z" fill="#E25839"/>
</svg>
