<svg width="24" height="25" viewBox="0 0 24 25" fill="none" xmlns="http://www.w3.org/2000/svg">
<g clip-path="url(#clip0_6_130)">
<path d="M9.87381 11.3144C10.3719 11.0639 10.7484 10.7849 11.0064 10.4833C11.4654 9.9403 11.692 9.22024 11.692 8.32766C11.692 7.45909 11.4654 6.71653 11.0124 6.09398C10.2563 5.0799 8.97674 4.56085 7.16759 4.53385H0V19.1646H6.68305C7.43611 19.1646 8.13367 19.1 8.77872 18.968C9.42377 18.8345 9.98182 18.59 10.4544 18.233C10.8744 17.9224 11.2254 17.5369 11.5044 17.0824C11.9455 16.3953 12.166 15.6168 12.166 14.7497C12.166 13.9096 11.9725 13.1941 11.5885 12.606C11.1999 12.018 10.6299 11.5874 9.87381 11.3144ZM2.95674 7.07506H6.18501C6.89457 7.07506 7.47961 7.15157 7.93865 7.30308C8.46969 7.5236 8.73522 7.97213 8.73522 8.65619C8.73522 9.26974 8.5327 9.69878 8.13217 9.9403C7.72863 10.1818 7.20509 10.3033 6.56304 10.3033H2.95674V7.07506ZM8.06166 16.3683C7.70463 16.5408 7.20209 16.6263 6.55854 16.6263H2.95674V12.7245H6.60804C7.24409 12.729 7.73913 12.813 8.09316 12.9705C8.72322 13.2556 9.03674 13.7776 9.03674 14.5412C9.03674 15.4412 8.71271 16.0473 8.06166 16.3683Z" fill="#E25839"/>
<path d="M21.6933 5.21639H15.3373V7.03754H21.6933V5.21639Z" fill="#E25839"/>
<path d="M23.9015 12.4035C23.7695 11.5559 23.4785 10.8104 23.0254 10.1668C22.5289 9.43774 21.8988 8.9037 21.1323 8.56617C20.3687 8.22714 19.5091 8.05763 18.5521 8.05913C16.9454 8.05913 15.6403 8.56167 14.6307 9.55925C13.6242 10.5598 13.1201 11.9985 13.1201 13.8736C13.1201 15.8733 13.6767 17.3179 14.7958 18.2045C15.9103 19.0925 17.1975 19.5351 18.6586 19.5351C20.4272 19.5351 21.8028 19.0085 22.7854 17.9584C23.414 17.2954 23.7695 16.6428 23.8475 16.0023H20.9193C20.7497 16.3188 20.5532 16.5663 20.3282 16.7463C19.9202 17.0764 19.3891 17.2414 18.7381 17.2414C18.1185 17.2414 17.5935 17.1049 17.1554 16.8333C16.4324 16.3983 16.0544 15.6363 16.0064 14.5517H23.9975C24.0095 13.6171 23.9795 12.8985 23.9015 12.4035ZM16.0784 12.684C16.1834 11.9805 16.4384 11.4224 16.8434 11.0099C17.2485 10.5988 17.8215 10.3918 18.5551 10.3903C19.2316 10.3903 19.7972 10.5838 20.2577 10.9724C20.7122 11.3639 20.9688 11.9324 21.0213 12.684H16.0784Z" fill="#E25839"/>
</g>
<defs>
<clipPath id="clip0_6_130">
<rect width="24" height="24" fill="white" transform="translate(0 0.0344772)"/>
</clipPath>
</defs>
</svg>
