<svg width="24" height="25" viewBox="0 0 24 25" fill="none" xmlns="http://www.w3.org/2000/svg">
<g clip-path="url(#clip0_6_137)">
<path d="M23.52 23.6372V15.1988C23.52 11.0516 22.6272 7.88362 17.7888 7.88362C15.456 7.88362 13.9008 9.15082 13.2672 10.3604H13.2096V8.25802H8.63037V23.6372H13.4112V16.0052C13.4112 13.9892 13.7856 12.0596 16.2624 12.0596C18.7104 12.0596 18.7392 14.3348 18.7392 16.1204V23.6084H23.52V23.6372Z" fill="#E25839"/>
<path d="M0.854248 8.25802H5.63505V23.6372H0.854248V8.25802Z" fill="#E25839"/>
<path d="M3.24478 0.597221C1.71838 0.597221 0.47998 1.83562 0.47998 3.36202C0.47998 4.88842 1.71838 6.15562 3.24478 6.15562C4.77118 6.15562 6.00958 4.88842 6.00958 3.36202C6.00958 1.83562 4.77118 0.597221 3.24478 0.597221Z" fill="#E25839"/>
</g>
<defs>
<clipPath id="clip0_6_137">
<rect width="24" height="24" fill="white" transform="translate(0 0.0344772)"/>
</clipPath>
</defs>
</svg>
