<svg width="57" height="100%" viewBox="0 0 57 36" fill="none" xmlns="http://www.w3.org/2000/svg" aria-label="Olo Logo"><g clip-path="url(#clip0_1634_37383)"><path fill-rule="evenodd" clip-rule="evenodd" d="M11.3937 24.1728C14.7173 24.1728 17.4059 21.4045 17.4059 17.9909C17.4059 14.5831 14.7173 11.8155 11.3937 11.8155C8.07024 11.8155 5.3817 14.5831 5.3817 17.9909C5.3817 21.4045 8.07024 24.1728 11.3937 24.1728ZM11.3949 6.28516C17.6867 6.28516 22.7897 11.5274 22.7897 17.9908C22.7897 24.4542 17.6867 29.6965 11.3949 29.6965C5.10307 29.6965 0 24.4542 0 17.9908C0 11.5274 5.10307 6.28516 11.3949 6.28516Z" fill="#1B0B3B"></path><path fill-rule="evenodd" clip-rule="evenodd" d="M45.2727 24.1728C41.9492 24.1728 39.2606 21.4045 39.2606 17.9909C39.2606 14.5831 41.9492 11.8155 45.2727 11.8155C48.5962 11.8155 51.2848 14.5831 51.2848 17.9909C51.2848 21.4045 48.5962 24.1728 45.2727 24.1728ZM45.2738 6.28516C38.982 6.28516 33.8789 11.5274 33.8789 17.9908C33.8789 24.4542 38.982 29.6965 45.2738 29.6965C51.5656 29.6965 56.6687 24.4542 56.6687 17.9908C56.6687 11.5274 51.5656 6.28516 45.2738 6.28516Z" fill="#1B0B3B"></path><path fill-rule="evenodd" clip-rule="evenodd" d="M26.0039 35.612H31.3838V0.386719H26.0039V35.612Z" fill="#1B0B3B"></path></g><defs><clipPath id="clip0_1634_37383"><rect width="56.6667" height="35.2253" fill="white" transform="translate(0 0.386719)"></rect></clipPath></defs></svg>