<svg width="100%" height="100%" viewBox="0 0 157 34" fill="#ffffff" xmlns="http://www.w3.org/2000/svg" aria-label="Rakuten Viber Logo"><path d="M73.0716 26.6641H19.2109L23.5717 30.9069L73.0716 26.6641Z" fill="#ffffff"></path><path d="M24.2821 9.22076V9.9279C23.3393 9.33862 22.3964 8.86719 21.1 8.86719C17.3286 8.86719 14.5 12.285 14.5 16.5279C14.5 20.7708 17.3286 24.1886 21.1 24.1886C22.2786 24.1886 23.2214 23.835 24.2821 23.1279V23.835H27.5821V9.22076H24.2821ZM21.1 20.7708C19.2143 20.7708 17.9179 18.885 17.9179 16.6458C17.9179 14.2886 19.3321 12.5208 21.1 12.5208C22.9857 12.5208 24.2821 14.4065 24.2821 16.6458C24.2821 18.885 22.9857 20.7708 21.1 20.7708Z" fill="#ffffff"></path><path d="M50.7956 9.2207V17.8243C50.7956 19.4743 49.7349 20.7707 48.0849 20.7707C46.4349 20.7707 45.3742 19.3564 45.3742 17.8243V9.2207H42.0742V17.8243C42.0742 21.36 44.4314 24.1886 47.9671 24.1886C49.6171 24.1886 50.7956 23.2457 50.7956 23.2457V23.835H54.0956V9.2207H50.7956Z" fill="#ffffff"></path><path d="M81.675 23.835V15.2315C81.675 13.5815 82.7357 12.285 84.3857 12.285C86.0357 12.285 87.0964 13.6993 87.0964 15.2315V23.835H90.3964V15.2315C90.3964 11.6958 88.0393 8.86719 84.5036 8.86719C82.8536 8.86719 81.675 9.81004 81.675 9.81004V9.22076H78.375V23.835H81.675Z" fill="#ffffff"></path><path d="M4.94978 23.8343V18.1771H7.42478L11.6676 23.8343H15.9105L10.8426 16.9985C12.4926 15.82 13.4355 13.9343 13.4355 11.8128C13.4355 8.39498 10.6069 5.56641 7.18906 5.56641H1.41406V23.8343H4.94978ZM4.94978 9.10212H7.18906C8.72121 9.10212 10.0176 10.3985 10.0176 11.9307C10.0176 13.4628 8.72121 14.7593 7.18906 14.7593H4.94978V9.10212Z" fill="#ffffff"></path><path d="M63.0552 20.4177C62.7017 20.6534 62.3481 20.7713 61.9945 20.7713C61.4052 20.7713 60.4624 20.2998 60.4624 19.0034V12.757H63.291V9.22126H60.4624V5.68555H57.1624V9.33912H55.3945V12.757H57.1624V19.1213C57.1624 22.4213 59.6374 24.307 62.1124 24.307C63.0552 24.307 64.3517 23.9534 65.4124 23.3641L63.0552 20.4177Z" fill="#ffffff"></path><path d="M35.8291 16.1744L41.4863 9.22082H36.8898L32.8827 14.4065V4.38867H29.4648V23.8351H32.8827V17.9422L37.7148 23.8351H42.4291L35.8291 16.1744Z" fill="#ffffff"></path><path d="M70.7133 8.86719C66.824 8.86719 64.1133 12.285 64.1133 16.5279C64.1133 21.0065 67.5311 24.1886 71.0669 24.1886C72.8347 24.1886 75.074 23.5993 76.9597 20.8886L74.0133 19.2386C71.774 22.5386 68.0026 20.8886 67.5311 17.5886H77.0776C77.9026 12.4029 74.4847 8.86719 70.7133 8.86719ZM73.6597 14.6422H67.649C68.3561 11.2243 72.9526 11.1065 73.6597 14.6422Z" fill="#ffffff"></path><path d="M100.651 22.5386L94.9942 8.51356C94.8763 8.3957 94.8763 8.15999 94.7585 7.92427C94.7585 7.68856 94.6406 7.45285 94.6406 7.33499C94.6406 6.7457 94.8763 6.27427 95.2299 5.80285C95.7013 5.44927 96.1728 5.21356 96.762 5.21356C97.2335 5.21356 97.587 5.33142 97.9406 5.56713C98.1763 5.80285 98.5299 6.27427 98.7656 6.98142L102.537 17.235L106.191 7.09927C106.426 6.39213 106.662 5.9207 107.016 5.56713C107.369 5.33142 107.723 5.0957 108.312 5.0957C108.901 5.0957 109.491 5.21356 109.844 5.56713C110.198 5.9207 110.433 6.39213 110.433 6.98142C110.433 7.21713 110.433 7.45285 110.316 7.68856C110.316 7.92427 110.198 8.15999 110.08 8.3957L104.658 22.185C104.423 22.7743 104.069 23.2457 103.833 23.4814C103.48 23.7171 103.126 23.835 102.537 23.835C102.066 23.835 101.712 23.7171 101.358 23.4814C101.123 23.4814 100.887 23.1278 100.651 22.5386Z" fill="#ffffff"></path><path d="M115.381 21.3611C115.381 22.3039 115.263 23.011 114.909 23.4825C114.556 23.9539 114.084 24.1896 113.495 24.1896C112.788 24.1896 112.317 23.9539 112.081 23.4825C111.727 23.011 111.609 22.3039 111.609 21.3611V13.5825C111.609 12.6396 111.727 11.9325 112.081 11.461C112.434 10.9896 112.906 10.7539 113.495 10.7539C114.084 10.7539 114.674 10.9896 114.909 11.461C115.263 11.9325 115.381 12.6396 115.381 13.5825V21.3611Z" fill="#ffffff"></path><path d="M121.277 10.9885C121.748 10.6349 122.22 10.2814 122.809 10.1635C123.398 9.92779 123.87 9.92779 124.577 9.92779C126.345 9.92779 127.877 10.6349 129.055 12.0492C130.234 13.4635 130.823 15.2314 130.823 17.2349C130.823 19.2385 130.234 20.8885 128.937 22.3028C127.641 23.7171 126.227 24.4242 124.459 24.4242C123.752 24.4242 123.162 24.3064 122.573 24.0706C121.984 23.8349 121.512 23.4814 121.159 23.0099C120.923 23.4814 120.57 23.8349 120.334 23.9528C119.98 24.1885 119.627 24.3064 119.273 24.3064C118.566 24.3064 118.095 24.0706 117.741 23.5992C117.387 23.1278 117.27 22.4206 117.27 21.3599V8.39565C117.27 7.33493 117.387 6.62779 117.741 6.15636C118.095 5.68493 118.566 5.44922 119.273 5.44922C119.98 5.44922 120.452 5.68493 120.805 6.15636C121.159 6.62779 121.277 7.45279 121.277 8.39565V10.9885ZM120.923 16.9992C120.923 18.1778 121.159 19.0028 121.748 19.7099C122.337 20.4171 123.045 20.7706 123.87 20.7706C124.695 20.7706 125.402 20.4171 125.991 19.7099C126.58 19.0028 126.816 18.1778 126.816 16.9992C126.816 15.8206 126.58 14.9956 125.991 14.2885C125.402 13.5814 124.695 13.2278 123.87 13.2278C123.045 13.2278 122.337 13.5814 121.748 14.2885C121.159 14.9956 120.923 15.9385 120.923 16.9992Z" fill="#ffffff"></path><path d="M135.3 18.1771C135.418 18.8843 135.889 19.5914 136.479 19.945C137.068 20.4164 137.775 20.5343 138.6 20.5343C139.425 20.5343 140.25 20.2985 141.193 19.8271C142.136 19.3557 142.725 19.12 142.961 19.12C143.432 19.12 143.786 19.2378 144.139 19.5914C144.493 19.945 144.611 20.2985 144.611 20.77C144.611 21.595 144.022 22.42 142.725 23.1271C141.547 23.8343 140.014 24.1878 138.364 24.1878C136.361 24.1878 134.711 23.4807 133.297 22.1843C132 20.77 131.293 19.12 131.293 16.9985C131.293 14.8771 132 13.2271 133.297 11.8128C134.593 10.3985 136.243 9.69141 138.247 9.69141C140.132 9.69141 141.664 10.3985 142.961 11.695C144.257 12.9914 144.847 14.6414 144.847 16.5271C144.847 17.1164 144.729 17.5878 144.375 17.8235C144.139 18.0593 143.55 18.1771 142.725 18.1771H135.3ZM135.182 15.7021H141.193C141.193 14.995 140.839 14.17 140.25 13.6985C139.661 13.2271 139.072 12.9914 138.247 12.9914C137.539 12.9914 136.714 13.2271 136.243 13.6985C135.654 14.17 135.3 14.995 135.182 15.7021Z" fill="#ffffff"></path><path d="M146.023 21.1248V12.8748C146.023 11.8141 146.141 11.107 146.495 10.6355C146.848 10.1641 147.32 9.9284 148.027 9.9284C148.498 9.9284 148.852 10.0463 149.088 10.282C149.441 10.5177 149.677 10.8713 149.913 11.2248C150.384 10.7534 150.738 10.3998 151.209 10.1641C151.681 9.9284 152.152 9.81055 152.623 9.81055C153.213 9.81055 153.684 10.0463 154.038 10.3998C154.391 10.7534 154.627 11.2248 154.627 11.8141C154.627 12.6391 153.92 13.3463 152.388 13.8177C151.798 14.0534 151.445 14.1713 151.209 14.2891C150.738 14.5248 150.384 14.7605 150.148 15.1141C150.031 15.4677 149.913 15.9391 149.913 16.7641V21.007C149.913 22.0677 149.795 22.7748 149.441 23.2463C149.088 23.7177 148.616 23.9534 147.909 23.9534C147.202 23.9534 146.731 23.7177 146.377 23.2463C146.259 22.8927 146.023 22.1855 146.023 21.1248Z" fill="#ffffff"></path><path d="M111.492 7.45346C111.492 6.86417 111.728 6.39275 112.081 5.92132C112.553 5.44989 113.024 5.33203 113.614 5.33203C114.203 5.33203 114.674 5.56775 115.146 5.92132C115.617 6.39275 115.735 6.86417 115.735 7.45346C115.735 8.04275 115.499 8.51417 115.146 8.9856C114.792 9.33917 114.203 9.57489 113.614 9.57489C113.024 9.57489 112.553 9.33917 112.081 8.9856C111.728 8.51417 111.492 8.04275 111.492 7.45346Z" fill="#ffffff"></path></svg>